# xmcd
#
# Track frame offsets:
#	150
#	8920
#	27913
#	38646
#	50436
#	58790
#	70789
#	90297
#	103659
#	117234
#	126439
#	145896
#	168378
#	191092
#
# Disc length: 2764 seconds
#
# Revision: 0
# Processed by: cddbd v1.5.1PL0 Copyright (c) Steve Scherf et al.
# Submitted via: dBpowerAMP V4.0
#
DISCID=bd0aca0e
DTITLE=South Of The River Gospel Choir - First CD
DYEAR=1900
DGENRE=
TTITLE0=Train Whistle
TTITLE1=I Shall Not Be Moved
TTITLE2=Somogwaza
TTITLE3=Kearona
TTITLE4=Thuma Mina
TTITLE5=Brother Moses
TTITLE6=Ooh Child
TTITLE7=Freedom Is Coming
TTITLE8=When I get Inside
TTITLE9=Sing To The Power
TTITLE10=Oh Freedom
TTITLE11=Hallelujah
TTITLE12=Jesus On The Mainline Part 1
TTITLE13=Jesus On The Mainline Part 2
EXTD=South Of The River Gospel Choir is a Melbourne (Australia) based community choir
EXTT0=
EXTT1=
EXTT2=
EXTT3=
EXTT4=
EXTT5=
EXTT6=
EXTT7=
EXTT8=
EXTT9=
EXTT10=
EXTT11=
EXTT12=
EXTT13=
PLAYORDER=
